<svg width="20" height="27" viewBox="0 0 20 27" fill="none" xmlns="http://www.w3.org/2000/svg">
<path d="M19.4444 10H17.7778V7.77776C17.7778 3.48906 14.2887 0 10 0C5.71125 0 2.22224 3.48906 2.22224 7.77776V10H0.555573C0.24849 10 0 10.2485 0 10.5556V24.4445C0 25.6701 0.996615 26.6667 2.22224 26.6667H17.7778C19.0034 26.6667 20 25.6701 20 24.4444V10.5556C20 10.2485 19.7515 10 19.4444 10ZM11.6634 21.6054C11.6808 21.7621 11.6304 21.9195 11.5251 22.0372C11.4198 22.1549 11.269 22.2222 11.1111 22.2222H8.88891C8.73104 22.2222 8.58021 22.1549 8.47495 22.0372C8.36969 21.9195 8.31922 21.7622 8.33661 21.6054L8.68708 18.4538C8.11797 18.0398 7.77781 17.385 7.77781 16.6667C7.77781 15.4411 8.77443 14.4444 10.0001 14.4444C11.2257 14.4444 12.2223 15.441 12.2223 16.6667C12.2223 17.385 11.8821 18.0398 11.313 18.4538L11.6634 21.6054ZM14.4444 10H5.55557V7.77776C5.55557 5.32714 7.54938 3.33333 10 3.33333C12.4506 3.33333 14.4444 5.32714 14.4444 7.77776V10Z" fill="#0BB3F3"/>
</svg>
