<svg width="34" height="34" viewBox="0 0 34 34" fill="none" xmlns="http://www.w3.org/2000/svg">
<rect width="34" height="34" rx="4" fill="url(#paint0_linear)"/>
<path d="M17.3504 23.3237H16.305C15.5688 23.3237 14.9705 23.8877 14.9705 24.5816V25.9421C14.9705 26.636 15.5688 27.2 16.305 27.2H17.3504C18.0866 27.2 18.6849 26.636 18.6849 25.9421V24.5816C18.6849 23.8856 18.0866 23.3237 17.3504 23.3237Z" fill="white"/>
<path d="M9.97911 12.7913L11.9075 13.0177C12.5192 13.089 13.0997 12.7578 13.3199 12.2148C13.5979 11.5293 13.9849 10.9884 14.4809 10.5943C15.1838 10.0366 16.0579 9.75572 17.1033 9.75572C18.1865 9.75572 19.0495 10.0241 19.6901 10.5586C20.3306 11.0953 20.6487 11.7368 20.6487 12.4894C20.6487 13.0303 20.4685 13.525 20.1082 13.9737C19.8747 14.2588 19.1563 14.8583 17.9574 15.7745C16.7563 16.6906 15.9578 17.5166 15.5575 18.2503C15.1482 19.0008 15.0059 19.8331 14.9703 20.6675C14.9392 21.3823 15.5441 21.9777 16.3048 21.9777H17.3947C18.0886 21.9777 18.6625 21.4767 18.7248 20.8268C18.7693 20.3593 18.8516 20.005 18.9761 19.7639C19.1852 19.3509 19.7257 18.8059 20.5931 18.1266C22.2724 16.8164 23.3667 15.7808 23.8805 15.0177C24.3921 14.2567 24.6501 13.4496 24.6501 12.5963C24.6501 11.0555 23.9539 9.70331 22.5593 8.54191C21.167 7.38051 19.2897 6.7998 16.9321 6.7998C14.69 6.7998 12.8817 7.37212 11.5027 8.51885C10.3283 9.49577 9.61436 10.653 9.36303 11.9884C9.28516 12.3783 9.56763 12.7431 9.97911 12.7913Z" fill="white"/>
<defs>
<linearGradient id="paint0_linear" x1="17" y1="0" x2="17" y2="34" gradientUnits="userSpaceOnUse">
<stop stop-color="#037CC4"/>
<stop offset="1" stop-color="#0BB3F3"/>
</linearGradient>
</defs>
</svg>
