<svg width="34" height="34" viewBox="0 0 34 34" fill="none" xmlns="http://www.w3.org/2000/svg">
<rect width="34" height="34" rx="4" fill="url(#paint0_linear)"/>
<path d="M25.4464 16.0215C25.4103 15.9351 25.3586 15.8565 25.2927 15.7906L23.1683 13.6662C22.8913 13.3899 22.4436 13.3899 22.1667 13.6662C21.8897 13.9431 21.8897 14.3915 22.1667 14.6678L23.0826 15.5837H19.1256C18.7339 15.5837 18.4172 15.9011 18.4172 16.2921C18.4172 16.6831 18.7339 17.0005 19.1256 17.0005H23.0826L22.1666 17.9164C21.8897 18.1933 21.8897 18.6417 22.1666 18.918C22.3048 19.0568 22.4861 19.1256 22.6675 19.1256C22.8488 19.1256 23.0302 19.0569 23.1683 18.918L25.2927 16.7936C25.3586 16.7284 25.4103 16.6498 25.4464 16.5626C25.5179 16.3899 25.5179 16.1944 25.4464 16.0215Z" fill="white"/>
<path d="M20.5423 18.4172C20.1506 18.4172 19.8339 18.7345 19.8339 19.1256V22.6674H17.0005V11.3335C17.0005 11.0211 16.795 10.7448 16.4954 10.6549L14.0352 9.91675H19.8339V13.4586C19.8339 13.8496 20.1506 14.167 20.5423 14.167C20.934 14.167 21.2507 13.8496 21.2507 13.4586V9.20839C21.2507 8.81734 20.934 8.5 20.5423 8.5H9.20836C9.18286 8.5 9.16018 8.51063 9.13541 8.51345C9.1021 8.517 9.07166 8.52265 9.03978 8.53045C8.9654 8.54957 8.89809 8.57863 8.83507 8.61828C8.8195 8.6282 8.80037 8.6289 8.7855 8.64022C8.77978 8.64451 8.77766 8.65231 8.77198 8.65656C8.69478 8.71746 8.63033 8.79184 8.58358 8.8804C8.57365 8.89952 8.57152 8.92008 8.56375 8.9399C8.54107 8.99372 8.5163 9.04615 8.5078 9.10566C8.50425 9.12691 8.51063 9.14673 8.50993 9.16729C8.50923 9.18146 8.5 9.19422 8.5 9.20836V23.3758C8.5 23.7137 8.73871 24.0041 9.06953 24.07L16.1532 25.4868C16.1993 25.4967 16.246 25.5009 16.2921 25.5009C16.4543 25.5009 16.6137 25.445 16.7412 25.3401C16.9048 25.2056 17.0004 25.0051 17.0004 24.7926V24.0842H20.5423C20.934 24.0842 21.2507 23.7669 21.2507 23.3758V19.1256C21.2507 18.7345 20.934 18.4172 20.5423 18.4172Z" fill="white"/>
<defs>
<linearGradient id="paint0_linear" x1="17" y1="0" x2="17" y2="34" gradientUnits="userSpaceOnUse">
<stop stop-color="#037CC4"/>
<stop offset="1" stop-color="#0BB3F3"/>
</linearGradient>
</defs>
</svg>
