<svg width="34" height="34" viewBox="0 0 34 34" fill="none" xmlns="http://www.w3.org/2000/svg">
<rect width="34" height="34" rx="4" fill="url(#paint0_linear)"/>
<path d="M19.2717 12.7785C20.097 13.2959 20.6758 14.1716 20.7811 15.1881C21.1177 15.3454 21.4913 15.4358 21.8874 15.4358C23.3333 15.4358 24.5053 14.2638 24.5053 12.8181C24.5053 11.3722 23.3333 10.2002 21.8874 10.2002C20.4552 10.2006 19.2935 11.3517 19.2717 12.7785ZM17.5567 18.1386C19.0026 18.1386 20.1746 16.9664 20.1746 15.5207C20.1746 14.0749 19.0024 12.903 17.5567 12.903C16.1109 12.903 14.9383 14.0752 14.9383 15.5209C14.9383 16.9666 16.1109 18.1386 17.5567 18.1386ZM18.6671 18.317H16.4457C14.5975 18.317 13.0938 19.8209 13.0938 21.6692V24.3857L13.1007 24.4283L13.2878 24.4869C15.0517 25.038 16.5841 25.2218 17.8454 25.2218C20.3089 25.2218 21.7368 24.5194 21.8248 24.4746L21.9997 24.3862H22.0184V21.6692C22.019 19.8209 20.5154 18.317 18.6671 18.317ZM22.9983 15.6145H20.7941C20.7702 16.4964 20.3938 17.2905 19.7983 17.8617C21.4412 18.3502 22.6432 19.8737 22.6432 21.6732V22.5103C24.8196 22.4306 26.0738 21.8137 26.1564 21.7723L26.3313 21.6836H26.35V18.9661C26.35 17.1181 24.8463 15.6145 22.9983 15.6145ZM12.9631 15.4362C13.4752 15.4362 13.9517 15.2868 14.3553 15.0321C14.4836 14.1952 14.9323 13.4639 15.5732 12.9658C15.5758 12.9168 15.5805 12.8682 15.5805 12.8188C15.5805 11.3728 14.4083 10.2009 12.9631 10.2009C11.5169 10.2009 10.3451 11.3728 10.3451 12.8188C10.3451 14.2641 11.5169 15.4362 12.9631 15.4362ZM15.3141 17.8617C14.7215 17.2934 14.3464 16.5035 14.319 15.6269C14.2373 15.6209 14.1564 15.6145 14.0731 15.6145H11.8519C10.0037 15.6145 8.5 17.1181 8.5 18.9661V21.6832L8.50691 21.7251L8.69403 21.7841C10.109 22.2258 11.3719 22.4294 12.4687 22.4936V21.6732C12.4692 19.8737 13.6708 18.3506 15.3141 17.8617Z" fill="white"/>
<defs>
<linearGradient id="paint0_linear" x1="17" y1="0" x2="17" y2="34" gradientUnits="userSpaceOnUse">
<stop stop-color="#037CC4"/>
<stop offset="1" stop-color="#0BB3F3"/>
</linearGradient>
</defs>
</svg>
