<svg width="126" height="75" viewBox="0 0 126 75" fill="none" xmlns="http://www.w3.org/2000/svg">
<path d="M81.1259 0H44.8741C41.0838 0 38 3.08319 38 6.87408V29.0594C38 32.8418 41.0704 35.9201 44.8497 35.9335V46.001L59.3177 35.9335H81.1259C84.9162 35.9335 88 32.8497 88 29.0594V6.87408C88 3.08319 84.9162 0 81.1259 0ZM85.0703 29.0594C85.0703 31.2341 83.3009 33.0038 81.1259 33.0038H58.3986L47.7794 40.3934V33.0038H44.8741C42.6991 33.0038 40.9297 31.2341 40.9297 29.0594V6.87408C40.9297 4.69879 42.6991 2.92969 44.8741 2.92969H81.1259C83.3009 2.92969 85.0703 4.69879 85.0703 6.87408V29.0594Z" fill="#0BB3F3"/>
<path d="M51.3821 10.3516H74.6176V13.2812H51.3821V10.3516Z" fill="#0BB3F3"/>
<path d="M51.3821 16.6016H74.6176V19.5312H51.3821V16.6016Z" fill="#0BB3F3"/>
<path d="M51.3821 22.8516H74.6176V25.7812H51.3821V22.8516Z" fill="#0BB3F3"/>
<path d="M9.64551 70H7.64258L2.72754 62.0361H2.67285L2.70703 62.4805C2.77083 63.3281 2.80273 64.1029 2.80273 64.8047V70H1.31934V60.0059H3.30176L8.20312 67.9287H8.24414C8.23503 67.8239 8.2168 67.4434 8.18945 66.7871C8.16211 66.1263 8.14844 65.6113 8.14844 65.2422V60.0059H9.64551V70ZM18.9593 66.2061C18.9593 67.4411 18.6426 68.4049 18.0091 69.0977C17.3757 69.7904 16.4938 70.1367 15.3636 70.1367C14.6573 70.1367 14.0329 69.9772 13.4906 69.6582C12.9483 69.3392 12.5313 68.8812 12.2396 68.2842C11.9479 67.6872 11.8021 66.9945 11.8021 66.2061C11.8021 64.9801 12.1166 64.0231 12.7455 63.335C13.3744 62.6468 14.2608 62.3027 15.4046 62.3027C16.4984 62.3027 17.3643 62.6559 18.0023 63.3623C18.6403 64.0641 18.9593 65.012 18.9593 66.2061ZM13.4564 66.2061C13.4564 67.9515 14.1013 68.8242 15.391 68.8242C16.667 68.8242 17.305 67.9515 17.305 66.2061C17.305 64.4788 16.6625 63.6152 15.3773 63.6152C14.7028 63.6152 14.2129 63.8385 13.9076 64.2852C13.6068 64.7318 13.4564 65.3721 13.4564 66.2061ZM27.7774 70.1367C26.6335 70.1367 25.7631 69.804 25.1661 69.1387C24.5736 68.4688 24.2774 67.5094 24.2774 66.2607C24.2774 64.9893 24.5873 64.0117 25.2071 63.3281C25.8315 62.6445 26.7315 62.3027 27.9073 62.3027C28.7048 62.3027 29.4226 62.4508 30.0606 62.7471L29.5753 64.0391C28.8962 63.7747 28.3357 63.6426 27.8936 63.6426C26.5857 63.6426 25.9317 64.5107 25.9317 66.2471C25.9317 67.0947 26.0935 67.7327 26.4171 68.1611C26.7452 68.585 27.2237 68.7969 27.8526 68.7969C28.5681 68.7969 29.2449 68.6191 29.8829 68.2637V69.665C29.5958 69.8337 29.2882 69.9544 28.96 70.0273C28.6365 70.1003 28.2423 70.1367 27.7774 70.1367ZM38.5063 66.2061C38.5063 67.4411 38.1896 68.4049 37.5561 69.0977C36.9226 69.7904 36.0408 70.1367 34.9106 70.1367C34.2042 70.1367 33.5799 69.9772 33.0375 69.6582C32.4952 69.3392 32.0782 68.8812 31.7866 68.2842C31.4949 67.6872 31.3491 66.9945 31.3491 66.2061C31.3491 64.9801 31.6635 64.0231 32.2924 63.335C32.9213 62.6468 33.8077 62.3027 34.9516 62.3027C36.0454 62.3027 36.9112 62.6559 37.5493 63.3623C38.1873 64.0641 38.5063 65.012 38.5063 66.2061ZM33.0034 66.2061C33.0034 67.9515 33.6482 68.8242 34.9379 68.8242C36.214 68.8242 36.852 67.9515 36.852 66.2061C36.852 64.4788 36.2094 63.6152 34.9243 63.6152C34.2498 63.6152 33.7599 63.8385 33.4545 64.2852C33.1537 64.7318 33.0034 65.3721 33.0034 66.2061ZM46.8699 70H45.2566V65.3379C45.2566 64.7591 45.1473 64.3285 44.9285 64.0459C44.7098 63.7588 44.368 63.6152 43.9031 63.6152C43.2833 63.6152 42.8276 63.818 42.5359 64.2236C42.2488 64.6247 42.1053 65.2946 42.1053 66.2334V70H40.4988V62.4395H41.7566L41.9822 63.4307H42.0643C42.2739 63.0706 42.577 62.7926 42.9734 62.5967C43.3745 62.4007 43.8143 62.3027 44.2928 62.3027C45.4549 62.3027 46.2251 62.6992 46.6033 63.4922H46.7127C46.936 63.1185 47.2505 62.8268 47.6561 62.6172C48.0617 62.4076 48.5265 62.3027 49.0506 62.3027C49.9529 62.3027 50.6092 62.5306 51.0193 62.9863C51.4341 63.4421 51.6414 64.137 51.6414 65.0713V70H50.035V65.3379C50.035 64.7591 49.9233 64.3285 49.7 64.0459C49.4813 63.7588 49.1395 63.6152 48.6746 63.6152C48.0503 63.6152 47.5923 63.8112 47.3006 64.2031C47.0135 64.5905 46.8699 65.1875 46.8699 65.9941V70ZM60.3947 70H58.7814V65.3379C58.7814 64.7591 58.672 64.3285 58.4533 64.0459C58.2345 63.7588 57.8927 63.6152 57.4279 63.6152C56.8081 63.6152 56.3524 63.818 56.0607 64.2236C55.7736 64.6247 55.63 65.2946 55.63 66.2334V70H54.0236V62.4395H55.2814L55.507 63.4307H55.589C55.7987 63.0706 56.1017 62.7926 56.4982 62.5967C56.8992 62.4007 57.339 62.3027 57.8175 62.3027C58.9796 62.3027 59.7498 62.6992 60.1281 63.4922H60.2375C60.4608 63.1185 60.7752 62.8268 61.1808 62.6172C61.5864 62.4076 62.0513 62.3027 62.5754 62.3027C63.4777 62.3027 64.1339 62.5306 64.5441 62.9863C64.9588 63.4421 65.1662 64.137 65.1662 65.0713V70H63.5597V65.3379C63.5597 64.7591 63.4481 64.3285 63.2248 64.0459C63.006 63.7588 62.6642 63.6152 62.1994 63.6152C61.575 63.6152 61.117 63.8112 60.8254 64.2031C60.5382 64.5905 60.3947 65.1875 60.3947 65.9941V70ZM70.8501 70.1367C69.6743 70.1367 68.7538 69.7949 68.0884 69.1113C67.4276 68.4232 67.0972 67.4775 67.0972 66.2744C67.0972 65.0394 67.4048 64.0687 68.02 63.3623C68.6353 62.6559 69.4807 62.3027 70.5562 62.3027C71.5542 62.3027 72.3426 62.6058 72.9214 63.2119C73.5002 63.818 73.7896 64.652 73.7896 65.7139V66.582H68.7515C68.7743 67.3158 68.9725 67.8809 69.3462 68.2773C69.7199 68.6693 70.2463 68.8652 70.9253 68.8652C71.3719 68.8652 71.7866 68.8242 72.1695 68.7422C72.5568 68.6556 72.9715 68.5143 73.4136 68.3184V69.624C73.0217 69.8109 72.6252 69.943 72.2241 70.0205C71.8231 70.098 71.3651 70.1367 70.8501 70.1367ZM70.5562 63.5195C70.0458 63.5195 69.6356 63.6813 69.3257 64.0049C69.0204 64.3285 68.8381 64.8001 68.7788 65.4199H72.2105C72.2014 64.7956 72.051 64.3239 71.7593 64.0049C71.4676 63.6813 71.0666 63.5195 70.5562 63.5195ZM82.4061 70H80.7929V65.3516C80.7929 64.7682 80.6744 64.333 80.4374 64.0459C80.205 63.7588 79.8335 63.6152 79.3231 63.6152C78.6441 63.6152 78.1473 63.8158 77.8329 64.2168C77.5184 64.6178 77.3612 65.29 77.3612 66.2334V70H75.7548V62.4395H77.0126L77.2382 63.4307H77.3202C77.5481 63.0706 77.8716 62.7926 78.2909 62.5967C78.7102 62.4007 79.175 62.3027 79.6854 62.3027C81.4992 62.3027 82.4061 63.2256 82.4061 65.0713V70ZM87.5979 68.8379C87.9898 68.8379 88.3817 68.7764 88.7737 68.6533V69.8633C88.5959 69.9408 88.3658 70.0046 88.0832 70.0547C87.8052 70.1094 87.5159 70.1367 87.2151 70.1367C85.6929 70.1367 84.9319 69.3346 84.9319 67.7305V63.6562H83.8997V62.9453L85.0071 62.3574L85.5539 60.7578H86.5452V62.4395H88.6985V63.6562H86.5452V67.7031C86.5452 68.0905 86.6409 68.3776 86.8323 68.5645C87.0282 68.7467 87.2834 68.8379 87.5979 68.8379ZM95.5104 67.8467C95.5104 68.585 95.2415 69.1523 94.7037 69.5488C94.166 69.9408 93.3958 70.1367 92.3932 70.1367C91.386 70.1367 90.5771 69.984 89.9664 69.6787V68.291C90.8551 68.7012 91.6822 68.9062 92.4479 68.9062C93.4368 68.9062 93.9313 68.6077 93.9313 68.0107C93.9313 67.8193 93.8766 67.6598 93.7672 67.5322C93.6578 67.4046 93.4778 67.2725 93.2271 67.1357C92.9765 66.999 92.6279 66.8441 92.1813 66.6709C91.3108 66.3337 90.7206 65.9964 90.4107 65.6592C90.1054 65.3219 89.9527 64.8844 89.9527 64.3467C89.9527 63.6995 90.2125 63.1982 90.732 62.8428C91.2561 62.4827 91.9671 62.3027 92.8648 62.3027C93.7535 62.3027 94.5943 62.4827 95.3873 62.8428L94.8678 64.0527C94.052 63.7155 93.3661 63.5469 92.8102 63.5469C91.9625 63.5469 91.5387 63.7884 91.5387 64.2715C91.5387 64.5085 91.648 64.709 91.8668 64.873C92.0901 65.0371 92.5732 65.2627 93.316 65.5498C93.9404 65.7913 94.3938 66.0124 94.6764 66.2129C94.9589 66.4134 95.1686 66.6458 95.3053 66.9102C95.442 67.1699 95.5104 67.4821 95.5104 67.8467ZM100.022 62.4395H101.772L103.31 66.7256C103.542 67.3363 103.697 67.9105 103.775 68.4482H103.829C103.87 68.1976 103.946 67.8945 104.055 67.5391C104.164 67.179 104.743 65.4792 105.791 62.4395H107.528L104.294 71.0049C103.706 72.5771 102.727 73.3633 101.355 73.3633C100.999 73.3633 100.653 73.3245 100.316 73.2471V71.9756C100.557 72.0303 100.833 72.0576 101.143 72.0576C101.918 72.0576 102.462 71.6087 102.777 70.7109L103.057 70L100.022 62.4395ZM112.118 70.1367C110.942 70.1367 110.021 69.7949 109.356 69.1113C108.695 68.4232 108.365 67.4775 108.365 66.2744C108.365 65.0394 108.673 64.0687 109.288 63.3623C109.903 62.6559 110.748 62.3027 111.824 62.3027C112.822 62.3027 113.61 62.6058 114.189 63.2119C114.768 63.818 115.057 64.652 115.057 65.7139V66.582H110.019C110.042 67.3158 110.24 67.8809 110.614 68.2773C110.988 68.6693 111.514 68.8652 112.193 68.8652C112.64 68.8652 113.054 68.8242 113.437 68.7422C113.825 68.6556 114.239 68.5143 114.681 68.3184V69.624C114.289 69.8109 113.893 69.943 113.492 70.0205C113.091 70.098 112.633 70.1367 112.118 70.1367ZM111.824 63.5195C111.313 63.5195 110.903 63.6813 110.593 64.0049C110.288 64.3285 110.106 64.8001 110.047 65.4199H113.478C113.469 64.7956 113.319 64.3239 113.027 64.0049C112.735 63.6813 112.334 63.5195 111.824 63.5195ZM119.839 68.8379C120.231 68.8379 120.623 68.7764 121.015 68.6533V69.8633C120.837 69.9408 120.607 70.0046 120.324 70.0547C120.046 70.1094 119.757 70.1367 119.456 70.1367C117.934 70.1367 117.173 69.3346 117.173 67.7305V63.6562H116.141V62.9453L117.248 62.3574L117.795 60.7578H118.786V62.4395H120.939V63.6562H118.786V67.7031C118.786 68.0905 118.882 68.3776 119.073 68.5645C119.269 68.7467 119.524 68.8379 119.839 68.8379ZM122.433 69.1455C122.433 68.8128 122.52 68.5576 122.693 68.3799C122.866 68.2021 123.117 68.1133 123.445 68.1133C123.777 68.1133 124.03 68.2067 124.204 68.3936C124.377 68.5758 124.463 68.8265 124.463 69.1455C124.463 69.4691 124.374 69.7266 124.197 69.918C124.024 70.1048 123.773 70.1982 123.445 70.1982C123.117 70.1982 122.866 70.1048 122.693 69.918C122.52 69.7311 122.433 69.4736 122.433 69.1455Z" fill="#5F6062"/>
</svg>
