<svg width="40" height="40" viewBox="0 0 40 40" fill="none" xmlns="http://www.w3.org/2000/svg">
<path d="M20 0C8.95546 0 0 8.9537 0 19.9991C0 31.0445 8.95458 39.9982 20 39.9982C31.0463 39.9982 40 31.0445 40 19.9991C40 8.9537 31.0463 0 20 0ZM20 5.97997C23.6546 5.97997 26.616 8.94228 26.616 12.5951C26.616 16.2488 23.6546 19.2102 20 19.2102C16.3472 19.2102 13.3858 16.2488 13.3858 12.5951C13.3858 8.94228 16.3472 5.97997 20 5.97997ZM19.9956 34.7694C16.3507 34.7694 13.0124 33.442 10.4375 31.2448C9.81024 30.7098 9.4483 29.9253 9.4483 29.1022C9.4483 25.3975 12.4466 22.4326 16.1522 22.4326H23.8496C27.556 22.4326 30.5429 25.3975 30.5429 29.1022C30.5429 29.9262 30.1827 30.7089 29.5546 31.244C26.9806 33.442 23.6414 34.7694 19.9956 34.7694Z" fill="url(#paint0_linear)"/>
<defs>
<linearGradient id="paint0_linear" x1="20" y1="0" x2="20" y2="39.9982" gradientUnits="userSpaceOnUse">
<stop stop-color="#0BB3F3"/>
<stop offset="1" stop-color="#037CC4"/>
</linearGradient>
</defs>
</svg>
