<svg width="20" height="28" viewBox="0 0 20 28" fill="none" xmlns="http://www.w3.org/2000/svg">
<path d="M7.51993 8.48535H4.94602C4.5096 8.48535 4.15454 8.84041 4.15454 9.27684V10.264H8.31141V9.27684C8.31141 8.84041 7.95635 8.48535 7.51993 8.48535Z" fill="#0BB3F3"/>
<path d="M6.23282 6.89536C6.72533 6.89536 7.12603 6.49466 7.12603 6.00215V5.04751C7.12603 4.555 6.72533 4.1543 6.23282 4.1543C5.7403 4.1543 5.3396 4.555 5.3396 5.04751V6.00215C5.33965 6.49466 5.7403 6.89536 6.23282 6.89536Z" fill="#0BB3F3"/>
<path d="M0 0V27.016H20V0H0ZM11.625 6.90137H15.7244V8.48433H11.625V6.90137ZM2.57153 9.27719C2.57153 8.29955 3.16556 7.45826 4.01145 7.0947C3.84862 6.76497 3.7567 6.39424 3.7567 6.0023V5.04766C3.7567 3.6823 4.86752 2.57148 6.23288 2.57148C7.59824 2.57148 8.70906 3.6823 8.70906 5.04766V6.0023C8.70906 6.39424 8.61715 6.76497 8.45436 7.0947C9.3003 7.45831 9.89434 8.2996 9.89434 9.27724V11.8473H2.57153V9.27719ZM2.39371 14.8814H15.1471V16.4644H2.39371V14.8814ZM15.1471 23.1904H2.39371V21.6074H15.1471V23.1904ZM17.4778 19.8274H2.39371V18.2444H17.4778V19.8274ZM17.4778 11.8473H11.625V10.2643H17.4778V11.8473H17.4778Z" fill="#0BB3F3"/>
</svg>
