<svg width="34" height="34" viewBox="0 0 34 34" fill="none" xmlns="http://www.w3.org/2000/svg">
<rect width="34" height="34" rx="4" fill="url(#paint0_linear)"/>
<path d="M20.9955 24.8116L20.7267 25.9104C19.9203 26.2287 19.2762 26.471 18.7965 26.6375C18.3163 26.8046 17.7584 26.8877 17.1227 26.8877C16.1464 26.8877 15.3871 26.6486 14.8456 26.1736C14.304 25.6966 14.0331 25.0923 14.0331 24.3592C14.0331 24.0754 14.0528 23.7835 14.0936 23.4861C14.1349 23.1883 14.2004 22.853 14.29 22.4781L15.2978 18.9112C15.3875 18.5696 15.4637 18.246 15.5247 17.9399C15.5866 17.6358 15.6164 17.356 15.6164 17.1041C15.6164 16.6485 15.5221 16.3299 15.3344 16.1508C15.1466 15.9721 14.7883 15.8814 14.2564 15.8814C13.9959 15.8814 13.7281 15.9232 13.4552 16.0039C13.181 16.0849 12.9467 16.1632 12.75 16.2359L13.0195 15.1363C13.6797 14.8675 14.3107 14.6373 14.9144 14.4462C15.518 14.2547 16.0883 14.1588 16.6278 14.1588C17.5973 14.1588 18.3455 14.3931 18.8708 14.8618C19.3962 15.3307 19.6588 15.9387 19.6588 16.6878C19.6588 16.8428 19.6415 17.116 19.6044 17.5063C19.5682 17.8975 19.5008 18.256 19.4025 18.582L18.3991 22.1347C18.3168 22.42 18.2429 22.7462 18.1786 23.1133C18.1122 23.478 18.0805 23.7566 18.0805 23.9435C18.0805 24.4152 18.1856 24.7373 18.3965 24.9085C18.6089 25.0797 18.9748 25.1649 19.4944 25.1649C19.7384 25.1649 20.016 25.1216 20.3245 25.0366C20.6321 24.9516 20.8564 24.877 20.9955 24.8116ZM21.25 9.8965C21.25 10.5155 21.0167 11.0441 20.5479 11.4788C20.0803 11.915 19.5169 12.1333 18.8577 12.1333C18.1965 12.1333 17.6317 11.915 17.1587 11.4788C16.6866 11.0439 16.4501 10.5155 16.4501 9.8965C16.4501 9.27873 16.6866 8.74923 17.1587 8.30905C17.6308 7.86956 18.1967 7.6499 18.8577 7.6499C19.5167 7.6499 20.0803 7.87008 20.5479 8.30905C21.0171 8.74923 21.25 9.2789 21.25 9.8965Z" fill="white"/>
<defs>
<linearGradient id="paint0_linear" x1="17" y1="0" x2="17" y2="34" gradientUnits="userSpaceOnUse">
<stop stop-color="#037CC4"/>
<stop offset="1" stop-color="#0BB3F3"/>
</linearGradient>
</defs>
</svg>
