<svg width="40" height="46" viewBox="0 0 40 46" fill="none" xmlns="http://www.w3.org/2000/svg">
<path d="M4 0C0.3056 0 -0.000355247 5.65991 3.08938e-07 9.33822C0.000178087 10.0676 0.604 10.6667 1.33333 10.6667H10.6667C10.8553 2.7656 6.73813 0 4 0Z" fill="#E1E6F0"/>
<path d="M34.6667 0H4C6.73813 0 8.18862 2.7656 8 10.6667V44.1778C8 44.9148 8.59636 45.5111 9.33333 45.5111H38.6667C39.4036 45.5111 40 44.9148 40 44.1778V9.33333C40 2.45182 37.2448 0 34.6667 0Z" fill="#F3F5F9"/>
<path d="M40 44.1778V9.33333C40 2.45182 37.2448 0 34.6667 0H24V45.5111H38.6667C39.4036 45.5111 40 44.9148 40 44.1778Z" fill="#E1E6F0"/>
<path d="M19.9999 40.0888H14.6666C13.9296 40.0888 13.3333 39.4924 13.3333 38.7555C13.3333 38.0185 13.9296 37.4221 14.6666 37.4221H19.9999C20.7369 37.4221 21.3333 38.0185 21.3333 38.7555C21.3333 39.4924 20.7369 40.0888 19.9999 40.0888Z" fill="#FFBB99"/>
<path d="M33.3334 40.0888H28.0001C27.2631 40.0888 26.6667 39.4924 26.6667 38.7555C26.6667 38.0185 27.2631 37.4221 28.0001 37.4221H33.3334C34.0704 37.4221 34.6667 38.0185 34.6667 38.7555C34.6667 39.4924 34.0704 40.0888 33.3334 40.0888Z" fill="#FF9680"/>
<path d="M19.9998 21.3334H27.9998C28.7368 21.3334 29.3332 20.7371 29.3332 20.0001C29.3332 19.2631 28.7368 18.6667 27.9998 18.6667H19.9998C19.2629 18.6667 18.6665 19.2631 18.6665 20.0001C18.6665 20.7371 19.2629 21.3334 19.9998 21.3334Z" fill="#FFBB99"/>
<path d="M14.6666 26.6667H33.3333C34.0702 26.6667 34.6666 26.0703 34.6666 25.3333C34.6666 24.5964 34.0702 24 33.3333 24H14.6666C13.9296 24 13.3333 24.5964 13.3333 25.3333C13.3333 26.0703 13.9296 26.6667 14.6666 26.6667Z" fill="#FFBB99"/>
<path d="M33.3333 29.3333H14.6666C13.9296 29.3333 13.3333 29.9296 13.3333 30.6666C13.3333 31.4036 13.9296 31.9999 14.6666 31.9999H33.3333C34.0702 31.9999 34.6666 31.4036 34.6666 30.6666C34.6666 29.9296 34.0702 29.3333 33.3333 29.3333Z" fill="#FFBB99"/>
<path d="M29.3333 20.0001C29.3333 19.2631 28.737 18.6667 28 18.6667H24V21.3334H28C28.737 21.3334 29.3333 20.7371 29.3333 20.0001Z" fill="#FF9680"/>
<path d="M34.6667 25.3333C34.6667 24.5964 34.0703 24 33.3333 24H24V26.6667H33.3333C34.0703 26.6667 34.6667 26.0703 34.6667 25.3333Z" fill="#FF9680"/>
<path d="M34.6667 30.6666C34.6667 29.9296 34.0703 29.3333 33.3333 29.3333H24V31.9999H33.3333C34.0703 31.9999 34.6667 31.4036 34.6667 30.6666Z" fill="#FF9680"/>
</svg>
