<svg width="40" height="40" viewBox="0 0 40 40" fill="none" xmlns="http://www.w3.org/2000/svg">
<path d="M15.1724 0H40V28.9655H15.1724V0Z" fill="#ACABB1"/>
<path d="M17.9312 0H37.2415V13.7931H17.9312V0Z" fill="#D8D7DA"/>
<path d="M19.3103 11.0345V37.2414C19.3082 37.9724 19.0168 38.6728 18.5 39.1896C17.9831 39.7065 17.2827 39.9978 16.5517 40H2.75862C2.02699 40 1.32532 39.7094 0.807981 39.192C0.290639 38.6747 0 37.973 0 37.2414V11.0345C0.00218307 10.3035 0.293524 9.60314 0.810393 9.08627C1.32726 8.5694 2.02766 8.27806 2.75862 8.27588H16.5517C17.2828 8.2777 17.9834 8.56892 18.5004 9.08587C19.0173 9.60282 19.3085 10.3034 19.3103 11.0345Z" fill="#5AAAE7"/>
<path d="M20.6896 12.4137C20.6905 11.9296 20.5634 11.454 20.3212 11.0349C20.0789 10.6158 19.7302 10.2683 19.3103 10.0275C19.2311 9.97925 19.1481 9.93773 19.062 9.90332C19.2259 10.2578 19.3106 10.6438 19.3103 11.0344V13.793H20.6896V12.4137Z" fill="#C6C5CA"/>
<path d="M19.3103 13.793H20.6896V28.9654H19.3103V13.793Z" fill="#898890"/>
<path d="M20.6897 3.44824H34.4828V10.3448H20.6897V3.44824Z" fill="#FFDE55"/>
<path d="M13.1033 8.27588V10.3448C13.1033 10.5278 13.0307 10.7032 12.9013 10.8325C12.772 10.9618 12.5966 11.0345 12.4137 11.0345H6.89644C6.71353 11.0345 6.53812 10.9618 6.40878 10.8325C6.27945 10.7032 6.20679 10.5278 6.20679 10.3448V8.27588H13.1033Z" fill="#FF9811"/>
<path d="M19.3103 13.7725V37.2414C19.3082 37.9724 19.0168 38.6728 18.5 39.1897C17.9831 39.7065 17.2827 39.9979 16.5517 40H2.75862C2.02699 40 1.32532 39.7094 0.807981 39.1921C0.290639 38.6747 0 37.9731 0 37.2414V35.6138C6.78621 31.1242 15.5517 23.7242 19.3103 13.7725Z" fill="#3D9AE2"/>
<path d="M15.1725 20.0071C14.1917 18.7021 12.7787 17.7887 11.1862 17.4301C9.5937 17.0716 7.92556 17.2913 6.4802 18.05C5.03484 18.8087 3.90655 20.0568 3.29715 21.5712C2.68775 23.0856 2.63701 24.7673 3.15399 26.3157C3.67096 27.864 4.72195 29.178 6.11893 30.0224C7.51591 30.8669 9.16776 31.1868 10.779 30.9249C12.3902 30.663 13.8557 29.8364 14.9134 28.593C15.971 27.3496 16.5518 25.7705 16.5518 24.1381C16.551 22.6481 16.067 21.1986 15.1725 20.0071Z" fill="#FFD422"/>
<path d="M24.5442 22.8898C24.4152 22.8897 24.2888 22.8533 24.1794 22.7849C24.07 22.7164 23.982 22.6187 23.9254 22.5028C23.8688 22.3868 23.8458 22.2573 23.8592 22.129C23.8725 22.0006 23.9215 21.8786 24.0008 21.7767C24.0878 21.6677 24.1371 21.5335 24.1413 21.3941C24.1455 21.2547 24.1044 21.1177 24.0242 21.0036C23.9208 20.8527 23.8815 20.6669 23.9151 20.4871C23.9487 20.3072 24.0523 20.1481 24.2032 20.0447C24.3541 19.9412 24.5399 19.902 24.7197 19.9355C24.8996 19.9691 25.0587 20.0727 25.1622 20.2236C25.4071 20.5794 25.5321 21.0042 25.519 21.436C25.5058 21.8677 25.3552 22.2841 25.0891 22.6243C25.0245 22.7071 24.9418 22.7741 24.8474 22.8201C24.7529 22.8662 24.6493 22.89 24.5442 22.8898Z" fill="#E6E7E8"/>
<path d="M26.207 24.1379C26.0789 24.1379 25.9534 24.1022 25.8444 24.0349C25.7355 23.9675 25.6474 23.8712 25.5901 23.7566C25.5329 23.6421 25.5086 23.5138 25.5201 23.3863C25.5316 23.2587 25.5784 23.1369 25.6553 23.0344C25.9978 22.5788 26.1902 22.0279 26.2061 21.4581C26.2219 20.8883 26.0603 20.3277 25.7435 19.8537C25.69 19.7785 25.6522 19.6934 25.6322 19.6033C25.6122 19.5133 25.6104 19.4201 25.6271 19.3293C25.6437 19.2386 25.6784 19.1521 25.7291 19.075C25.7798 18.9979 25.8454 18.9317 25.9221 18.8805C25.9989 18.8292 26.0851 18.7938 26.1757 18.7765C26.2663 18.7591 26.3595 18.7601 26.4497 18.7794C26.5399 18.7987 26.6254 18.8359 26.701 18.8889C26.7765 18.9418 26.8407 19.0093 26.8897 19.0875C27.3648 19.799 27.6073 20.6404 27.5839 21.4956C27.5604 22.3508 27.2721 23.1776 26.7587 23.862C26.6945 23.9476 26.6112 24.0172 26.5154 24.0651C26.4196 24.1129 26.3141 24.1379 26.207 24.1379Z" fill="#E6E7E8"/>
<path d="M27.862 25.3791C27.7339 25.3791 27.6084 25.3434 27.4994 25.2761C27.3905 25.2088 27.3025 25.1124 27.2452 24.9979C27.1879 24.8833 27.1636 24.7551 27.1752 24.6275C27.1867 24.5 27.2334 24.3781 27.3103 24.2757C27.9085 23.4757 28.2445 22.5102 28.2724 21.5118C28.3003 20.5133 28.0187 19.5306 27.4662 18.6984C27.3649 18.5461 27.3283 18.3597 27.3645 18.1804C27.4006 18.0011 27.5066 17.8435 27.6589 17.7422C27.7344 17.6921 27.8189 17.6573 27.9078 17.6399C27.9967 17.6224 28.0881 17.6227 28.1769 17.6406C28.3563 17.6767 28.5139 17.7826 28.6151 17.935C29.3254 19.0045 29.6873 20.2676 29.6513 21.551C29.6152 22.8345 29.183 24.0753 28.4137 25.1032C28.3495 25.1889 28.2662 25.2584 28.1704 25.3063C28.0747 25.3542 27.9691 25.3791 27.862 25.3791Z" fill="#E6E7E8"/>
<path d="M29.5173 26.6206C29.3892 26.6206 29.2637 26.5849 29.1547 26.5176C29.0458 26.4502 28.9577 26.3539 28.9004 26.2393C28.8432 26.1248 28.8189 25.9965 28.8304 25.869C28.8419 25.7414 28.8887 25.6196 28.9656 25.5171C29.8209 24.3757 30.3013 22.9971 30.3406 21.5713C30.3799 20.1455 29.9761 18.7425 29.1849 17.5557C29.1328 17.4804 29.0962 17.3955 29.0772 17.3059C29.0583 17.2163 29.0574 17.1238 29.0746 17.0339C29.0918 16.9439 29.1267 16.8583 29.1773 16.782C29.228 16.7057 29.2933 16.6402 29.3695 16.5894C29.4457 16.5386 29.5313 16.5035 29.6212 16.4861C29.7111 16.4688 29.8036 16.4695 29.8932 16.4883C29.9829 16.507 30.0679 16.5434 30.1433 16.5954C30.2187 16.6474 30.283 16.7138 30.3325 16.7909C31.2819 18.2151 31.7664 19.8987 31.7193 21.6097C31.6721 23.3207 31.0955 24.975 30.069 26.3447C30.0048 26.4304 29.9215 26.4999 29.8257 26.5478C29.73 26.5956 29.6244 26.6206 29.5173 26.6206Z" fill="#E6E7E8"/>
<path d="M6.61307 25.6481C6.48404 25.648 6.35764 25.6116 6.24825 25.5432C6.13885 25.4747 6.05085 25.377 5.99423 25.2611C5.93762 25.1451 5.91468 25.0156 5.92801 24.8873C5.94133 24.7589 5.9904 24.6369 6.06962 24.535C6.1566 24.426 6.2059 24.2918 6.21013 24.1524C6.21436 24.013 6.17328 23.876 6.09307 23.7619C6.04186 23.6872 6.00586 23.6031 5.98713 23.5145C5.96841 23.4259 5.96733 23.3344 5.98395 23.2454C6.00056 23.1563 6.03456 23.0714 6.08399 22.9955C6.13342 22.9196 6.19732 22.8542 6.27204 22.803C6.34675 22.7517 6.43083 22.7157 6.51946 22.697C6.60809 22.6783 6.69954 22.6772 6.78858 22.6938C6.87763 22.7105 6.96254 22.7444 7.03845 22.7939C7.11436 22.8433 7.17979 22.9072 7.231 22.9819C7.47597 23.3377 7.60098 23.7625 7.58783 24.1943C7.57468 24.626 7.42406 25.0424 7.1579 25.3826C7.0933 25.4654 7.01064 25.5324 6.91622 25.5784C6.82179 25.6244 6.71811 25.6483 6.61307 25.6481Z" fill="#E6E7E8"/>
<path d="M8.27584 26.8966C8.14776 26.8966 8.02221 26.861 7.91326 26.7936C7.80431 26.7263 7.71627 26.63 7.65899 26.5154C7.60171 26.4009 7.57747 26.2726 7.58897 26.1451C7.60047 26.0175 7.64727 25.8957 7.72411 25.7932C8.06662 25.3375 8.2591 24.7867 8.27491 24.2169C8.29072 23.6471 8.1291 23.0865 7.81239 22.6125C7.75889 22.5373 7.72101 22.4522 7.70101 22.3621C7.681 22.272 7.67928 22.1789 7.69593 22.0881C7.71259 21.9974 7.74728 21.9109 7.79796 21.8338C7.84865 21.7567 7.91429 21.6905 7.99099 21.6393C8.0677 21.588 8.15392 21.5526 8.24454 21.5353C8.33516 21.5179 8.42834 21.5189 8.51857 21.5382C8.60879 21.5575 8.69423 21.5947 8.76981 21.6477C8.84539 21.7006 8.90959 21.7681 8.9586 21.8463C9.43366 22.5578 9.6762 23.3992 9.65272 24.2544C9.62925 25.1096 9.34094 25.9364 8.82756 26.6208C8.76332 26.7064 8.68002 26.776 8.58426 26.8238C8.4885 26.8717 8.3829 26.8966 8.27584 26.8966Z" fill="#E6E7E8"/>
<path d="M9.93111 28.1379C9.80303 28.1379 9.67749 28.1022 9.56854 28.0349C9.45959 27.9676 9.37154 27.8712 9.31426 27.7567C9.25699 27.6421 9.23274 27.5139 9.24424 27.3863C9.25574 27.2587 9.30254 27.1369 9.37939 27.0345C9.97755 26.2345 10.3136 25.269 10.3415 24.2705C10.3694 23.272 10.0878 22.2894 9.53525 21.4572C9.43401 21.3048 9.39744 21.1185 9.43359 20.9392C9.46974 20.7599 9.57564 20.6022 9.72801 20.501C9.88037 20.3998 10.0667 20.3632 10.246 20.3993C10.4254 20.4355 10.583 20.5414 10.6842 20.6938C11.3945 21.7633 11.7564 23.0264 11.7204 24.3098C11.6843 25.5932 11.252 26.8341 10.4828 27.862C10.4186 27.9477 10.3353 28.0172 10.2395 28.0651C10.1438 28.113 10.0382 28.1379 9.93111 28.1379Z" fill="#E6E7E8"/>
<path d="M11.5861 29.3794C11.4581 29.3794 11.3325 29.3437 11.2236 29.2764C11.1146 29.209 11.0266 29.1127 10.9693 28.9981C10.912 28.8836 10.8878 28.7553 10.8993 28.6278C10.9108 28.5002 10.9576 28.3784 11.0344 28.2759C11.8898 27.1345 12.3702 25.7559 12.4095 24.3301C12.4487 22.9042 12.045 21.5013 11.2537 20.3145C11.2016 20.2392 11.165 20.1543 11.1461 20.0647C11.1271 19.9751 11.1262 19.8826 11.1434 19.7926C11.1606 19.7027 11.1955 19.6171 11.2462 19.5408C11.2968 19.4644 11.3622 19.399 11.4384 19.3482C11.5146 19.2974 11.6001 19.2623 11.69 19.2449C11.78 19.2276 11.8724 19.2283 11.9621 19.247C12.0517 19.2658 12.1367 19.3022 12.2121 19.3542C12.2876 19.4062 12.3519 19.4726 12.4013 19.5497C13.3508 20.9739 13.8353 22.6574 13.7881 24.3685C13.7409 26.0795 13.1644 27.7338 12.1379 29.1035C12.0736 29.1891 11.9903 29.2587 11.8946 29.3065C11.7988 29.3544 11.6932 29.3794 11.5861 29.3794Z" fill="#E6E7E8"/>
<path d="M26.8965 6.20703H28.2758V7.58634H26.8965V6.20703Z" fill="#EBBF00"/>
<path d="M29.6553 6.20703H31.0346V7.58634H29.6553V6.20703Z" fill="#EBBF00"/>
<path d="M24.1379 6.20703H25.5172V7.58634H24.1379V6.20703Z" fill="#EBBF00"/>
</svg>
