<svg width="22" height="28" viewBox="0 0 22 28" fill="none" xmlns="http://www.w3.org/2000/svg">
<path d="M1.81689 26.7378L1.77915 26.8829C1.78412 26.8842 1.78839 26.8856 1.79582 26.8879C1.79861 26.8888 1.80184 26.8898 1.80572 26.891C1.81758 26.8946 1.83476 26.8997 1.85432 26.9036C1.93246 26.9191 2.01293 26.9278 2.09467 26.9278H19.9053C19.9869 26.9278 20.0672 26.9191 20.1452 26.9037C20.165 26.8998 20.1823 26.8946 20.1943 26.891C20.1982 26.8898 20.2014 26.8888 20.2042 26.8879C20.2116 26.8856 20.2159 26.8842 20.2208 26.883C20.468 26.8191 20.6963 26.6863 20.8645 26.5152C21.0319 26.3449 21.15 26.1256 21.15 25.8889V25.6831V18.3333V7.21244C21.15 6.86334 21.1097 6.55845 20.8616 6.31038L20.519 5.96771L16.0323 1.48105L15.6896 1.13838C15.5064 0.955169 15.2532 0.85 14.9933 0.85H2.09467C1.79302 0.85 1.47982 0.96647 1.24218 1.21059C1.0032 1.45609 0.85 1.82073 0.85 2.30044V18.3333V25.6831V25.8889C0.85 26.1256 0.968144 26.3449 1.13548 26.5152C1.30377 26.6863 1.53213 26.8192 1.77941 26.883L1.81689 26.7378ZM1.81689 26.7378C1.82561 26.74 1.8342 26.7427 1.84282 26.7454C1.85614 26.7496 1.86952 26.7537 1.88356 26.7564L1.81689 26.7378ZM19.9373 7.37222C19.9453 7.37222 19.9533 7.37207 19.9611 7.37178V18.1833H2.03889V2.30044C2.03889 2.25612 2.04268 2.17118 2.06365 2.10204C2.07415 2.06745 2.08553 2.04861 2.09284 2.04058C2.09387 2.03945 2.09441 2.03884 2.09467 2.03855C2.09482 2.03837 2.09488 2.03831 2.09488 2.03831C2.09488 2.03831 2.09475 2.03849 2.09467 2.03864C2.0946 2.03877 2.09456 2.03889 2.09467 2.03889H14.6282C14.6279 2.04675 14.6278 2.05467 14.6278 2.06267V7.22222V7.37222H14.7778H19.9373ZM15.8167 2.94658L19.0534 6.18333H15.8167V2.94658ZM2.09576 25.7389C2.09506 25.7388 2.09342 25.7384 2.09061 25.7376C2.08749 25.7367 2.08355 25.7354 2.078 25.7335L2.0666 25.7293C2.04873 25.7191 2.03889 25.7016 2.03889 25.6831V19.3722H19.9611V25.6831C19.9611 25.7011 19.9517 25.7187 19.933 25.7295L19.922 25.7335C19.9165 25.7354 19.9125 25.7367 19.9094 25.7376C19.9066 25.7384 19.9049 25.7388 19.9042 25.7389H2.09576Z" fill="white" stroke="white" stroke-width="0.3"/>
<path d="M7.90744 20.8859C7.75944 20.7646 7.59233 20.673 7.40611 20.6126C7.21989 20.5517 7.03144 20.5215 6.84122 20.5215H5.55322V24.9997H6.28256V23.3833H6.82344C7.05811 23.3833 7.27322 23.349 7.46744 23.2802C7.66167 23.2113 7.82789 23.1139 7.96567 22.9886C8.10344 22.8633 8.21056 22.7082 8.28789 22.5237C8.36478 22.3393 8.40344 22.1339 8.40344 21.9068C8.40344 21.6922 8.35767 21.4988 8.26656 21.3264C8.17544 21.1539 8.05544 21.0077 7.90744 20.8859ZM7.631 22.3655C7.58611 22.489 7.52789 22.585 7.455 22.6539C7.38211 22.7228 7.30211 22.7726 7.215 22.8028C7.12789 22.833 7.03944 22.8486 6.95056 22.8486H6.28211V21.0744H6.82878C7.015 21.0744 7.16478 21.1037 7.27856 21.1624C7.39189 21.221 7.47989 21.2939 7.543 21.381C7.60567 21.4682 7.647 21.5593 7.66744 21.6544C7.68744 21.7495 7.69767 21.8335 7.69767 21.9064C7.69767 22.089 7.67544 22.2419 7.631 22.3655Z" fill="white"/>
<path d="M12.3126 21.1775C12.1242 20.9793 11.8873 20.8197 11.6015 20.7006C11.3157 20.5815 10.9846 20.5215 10.6082 20.5215H9.25928V24.9997H10.9544C11.0108 24.9997 11.0979 24.9926 11.2157 24.9784C11.3331 24.9641 11.4628 24.9322 11.6046 24.881C11.7464 24.8304 11.8931 24.7544 12.0451 24.653C12.1971 24.5517 12.3335 24.413 12.4553 24.2366C12.5771 24.0602 12.6771 23.8415 12.7562 23.5802C12.8353 23.3188 12.8748 23.0037 12.8748 22.6353C12.8748 22.3677 12.8282 22.1073 12.7353 21.8544C12.6415 21.6019 12.5011 21.3762 12.3126 21.1775ZM11.7811 23.9908C11.5624 24.3068 11.2059 24.4646 10.7117 24.4646H9.98861V21.0739H10.4139C10.7624 21.0739 11.0459 21.1197 11.2646 21.2108C11.4833 21.3019 11.6566 21.4215 11.7842 21.5695C11.9117 21.7175 11.9975 21.8824 12.0424 22.0646C12.0868 22.2468 12.1091 22.4313 12.1091 22.6175C12.1091 23.217 11.9997 23.6753 11.7811 23.9908Z" fill="white"/>
<path d="M13.9324 24.9997H14.6737V22.9824H16.5453V22.4842H14.6737V21.0744H16.7333V20.5215H13.9324V24.9997Z" fill="white"/>
<path d="M11.6414 4.94903L11.6414 4.94902C11.628 4.93192 11.6138 4.91348 11.599 4.89416C11.5386 4.81571 11.4671 4.72267 11.3888 4.6447C11.2923 4.54851 11.1747 4.46367 11.0417 4.46367C10.9902 4.46367 10.8992 4.47501 10.8106 4.48992C10.7217 4.50488 10.6291 4.5245 10.5744 4.54266L10.5743 4.54268C10.298 4.63477 10.1524 4.8483 10.0401 5.11043L10.0401 5.11045C9.87649 5.49306 9.90895 6.00313 10.0335 6.53131C10.1571 7.05565 10.3738 7.60704 10.5938 8.08741C10.2164 9.58311 9.58711 11.369 8.92522 12.8227C8.08923 13.2067 7.44557 13.5887 6.99935 13.9666C6.5509 14.3463 6.29582 14.7272 6.2533 15.1072L6.2533 15.1072C6.22222 15.386 6.29024 15.7904 6.76855 16.1492L6.76862 16.1493C6.90367 16.2502 7.06256 16.3041 7.22833 16.3041C7.64409 16.3041 8.05016 15.9863 8.50551 15.3467L8.46477 15.3177L8.50551 15.3467C8.83703 14.8809 9.19174 14.2487 9.56109 13.4667C10.737 12.9541 12.1862 12.491 13.4319 12.2285C14.1292 12.8932 14.7637 13.2397 15.319 13.2397C15.7346 13.2397 16.0906 13.0477 16.3464 12.6894C16.6093 12.3211 16.6782 11.9777 16.5234 11.6774C16.3383 11.3173 15.8887 11.1548 15.1901 11.1548C14.784 11.1548 14.2886 11.207 13.7155 11.3099C12.9153 10.4553 12.0813 9.21609 11.4891 7.99721C11.7831 6.75563 11.8578 6.04104 11.8412 5.614C11.8328 5.39903 11.8012 5.25517 11.7617 5.15292C11.7231 5.05296 11.6776 4.9951 11.6445 4.95294C11.6435 4.95162 11.6425 4.95032 11.6414 4.94903ZM7.41731 14.7304C7.6081 14.5498 7.88979 14.3398 8.281 14.1093C7.96404 14.6753 7.7182 15.0055 7.5425 15.1974C7.38938 15.3647 7.29084 15.4255 7.24634 15.4467C7.16251 15.3785 7.1252 15.3241 7.10855 15.2856C7.09139 15.2459 7.09432 15.2193 7.09618 15.2025L7.09624 15.2019C7.09625 15.2019 7.09625 15.2018 7.09625 15.2018C7.10798 15.0969 7.20004 14.9361 7.41731 14.7304ZM10.8252 5.4793C10.8473 5.44036 10.8679 5.4094 10.884 5.38784C10.8929 5.39929 10.9032 5.41381 10.9142 5.43145C10.9495 5.48756 10.9916 5.5735 11.0208 5.68846C11.0758 5.90571 11.0853 6.22944 10.9098 6.65506C10.6564 6.36156 10.642 6.05068 10.6986 5.80454C10.7289 5.6729 10.7796 5.55999 10.8252 5.4793ZM10.9087 5.35858C10.9088 5.35849 10.9089 5.35843 10.9089 5.3584L10.9087 5.35858ZM10.0551 12.3503C10.4742 11.3398 10.8638 10.2376 11.167 9.20553C11.6406 10.0417 12.1985 10.85 12.7598 11.5115C11.8695 11.7245 10.9295 12.0163 10.0551 12.3503ZM15.6569 12.1971C15.5985 12.2789 15.5036 12.3236 15.4048 12.3473C15.3065 12.3709 15.2112 12.3721 15.1599 12.3721C15.0548 12.3721 14.9835 12.3421 14.8924 12.2763C14.8461 12.2429 14.7958 12.201 14.7334 12.1491L14.7313 12.1473C14.6919 12.1145 14.6481 12.0781 14.5985 12.0382C14.8497 12.0118 15.0845 12.0046 15.2772 12.0046C15.4728 12.0046 15.5852 12.019 15.6541 12.0359C15.6923 12.0453 15.7171 12.0553 15.7368 12.065C15.7227 12.0953 15.6985 12.1388 15.6569 12.1971Z" fill="white" stroke="white" stroke-width="0.1"/>
</svg>
