<svg width="40" height="40" viewBox="0 0 40 40" fill="none" xmlns="http://www.w3.org/2000/svg">
<path d="M37.6562 37.6562H27.5V40H40V27.5H37.6562V37.6562Z" fill="#333333"/>
<path d="M2.34375 2.34375H12.5V0H0V12.5H2.34375V2.34375Z" fill="#333333"/>
<path d="M27.5 0V2.34375H37.6562V12.5H40V0H27.5Z" fill="#333333"/>
<path d="M2.34375 27.5H0V40H12.5V37.6562H2.34375V27.5Z" fill="#333333"/>
<path d="M4.76562 16.4844H16.4844V4.76562H4.76562V16.4844ZM7.10938 7.10938H14.1406V14.1406H7.10938V7.10938Z" fill="#333333"/>
<path d="M4.76562 35.1953H16.4844V23.5547H4.76562V35.1953ZM7.10938 25.8984H14.1406V32.8516H7.10938V25.8984Z" fill="#333333"/>
<path d="M35.2344 4.76562H23.5156V16.4844H35.2344V4.76562ZM32.8906 14.1406H25.8594V7.10938H32.8906V14.1406Z" fill="#333333"/>
<path d="M35.2344 23.5156H23.5156V35.2344H35.2344V23.5156ZM32.8906 32.8906H25.8594V25.8594H32.8906V32.8906Z" fill="#333333"/>
<path d="M9.45312 9.45312H11.7969V11.7969H9.45312V9.45312Z" fill="#333333"/>
<path d="M9.45312 28.2031H11.7969V30.5469H9.45312V28.2031Z" fill="#333333"/>
<path d="M28.2031 28.2031H30.5469V30.5469H28.2031V28.2031Z" fill="#333333"/>
<path d="M28.2031 9.45312H30.5469V11.7969H28.2031V9.45312Z" fill="#333333"/>
<path d="M34.8242 21.1719V18.8281H21.1719V4.76562H18.8281V18.8281H5.17578V21.1719H18.8281V35.2344H21.1719V21.1719H34.8242Z" fill="#333333"/>
</svg>
